<?xml version="1.0" encoding="UTF-8"?>
<svg xmlns="http://www.w3.org/2000/svg" xmlns:xlink="http://www.w3.org/1999/xlink" viewBox="0 0 50 50" width="24px" height="24px">
<g id="surface46762576">
<path style="fill-rule:nonzero;fill:rgb(100%,100%,100%);fill-opacity:1;stroke-width:5;stroke-linecap:butt;stroke-linejoin:round;stroke:rgb(0%,0%,0%);stroke-opacity:1;stroke-miterlimit:10;" d="M 154.80055 27.520219 C 157.2748 27.47921 159.585011 28.791519 160.842641 30.937691 C 162.0866 33.070194 162.0866 35.722152 160.842641 37.868325 C 159.585011 40.014497 157.2748 41.313137 154.80055 41.285797 L 17.199454 41.285797 C 14.725204 41.313137 12.414993 40.014497 11.157363 37.868325 C 9.913403 35.722152 9.913403 33.070194 11.157363 30.937691 C 12.414993 28.791519 14.725204 27.47921 17.199454 27.520219 Z M 154.80055 79.124048 C 157.2748 79.083038 159.585011 80.381678 160.842641 82.52785 C 162.0866 84.674023 162.0866 87.325981 160.842641 89.472153 C 159.585011 91.618326 157.2748 92.916965 154.80055 92.875956 L 17.199454 92.875956 C 14.725204 92.916965 12.414993 91.618326 11.157363 89.472153 C 9.913403 87.325981 9.913403 84.674023 11.157363 82.52785 C 12.414993 80.381678 14.725204 79.083038 17.199454 79.124048 Z M 154.80055 130.714207 C 157.2748 130.686867 159.585011 131.985506 160.842641 134.131679 C 162.0866 136.277851 162.0866 138.929809 160.842641 141.062312 C 159.585011 143.208485 157.2748 144.520794 154.80055 144.479784 L 17.199454 144.479784 C 14.725204 144.520794 12.414993 143.208485 11.157363 141.062312 C 9.913403 138.929809 9.913403 136.277851 11.157363 134.131679 C 12.414993 131.985506 14.725204 130.686867 17.199454 130.714207 Z M 154.80055 130.714207 " transform="matrix(0.285756,0,0,0.285756,0.425,0.425)"/>
<path style=" stroke:none;fill-rule:nonzero;fill:rgb(100%,100%,100%);fill-opacity:1;" d="M 5.339844 8.289062 C 4.632812 8.277344 3.972656 8.652344 3.613281 9.265625 C 3.257812 9.875 3.257812 10.632812 3.613281 11.246094 C 3.972656 11.859375 4.632812 12.230469 5.339844 12.222656 L 44.660156 12.222656 C 45.367188 12.230469 46.027344 11.859375 46.386719 11.246094 C 46.742188 10.632812 46.742188 9.875 46.386719 9.265625 C 46.027344 8.652344 45.367188 8.277344 44.660156 8.289062 Z M 5.339844 23.035156 C 4.632812 23.023438 3.972656 23.394531 3.613281 24.007812 C 3.257812 24.621094 3.257812 25.378906 3.613281 25.992188 C 3.972656 26.605469 4.632812 26.976562 5.339844 26.964844 L 44.660156 26.964844 C 45.367188 26.976562 46.027344 26.605469 46.386719 25.992188 C 46.742188 25.378906 46.742188 24.621094 46.386719 24.007812 C 46.027344 23.394531 45.367188 23.023438 44.660156 23.035156 Z M 5.339844 37.777344 C 4.632812 37.769531 3.972656 38.140625 3.613281 38.753906 C 3.257812 39.367188 3.257812 40.125 3.613281 40.734375 C 3.972656 41.347656 4.632812 41.722656 5.339844 41.710938 L 44.660156 41.710938 C 45.367188 41.722656 46.027344 41.347656 46.386719 40.734375 C 46.742188 40.125 46.742188 39.367188 46.386719 38.753906 C 46.027344 38.140625 45.367188 37.769531 44.660156 37.777344 Z M 5.339844 37.777344 "/>
</g>
</svg>
