<svg width="25" height="26" viewBox="0 0 25 26" fill="none" xmlns="http://www.w3.org/2000/svg">
<path d="M5.26316 20.9448C8.16579 20.9448 10.5263 18.6775 10.5263 15.8895V3.06819L22.3684 7.20337V16.5935C21.5722 16.1378 20.6637 15.8948 19.7368 15.8895C16.8342 15.8895 14.4737 18.1568 14.4737 20.9448C14.4737 23.7327 16.8342 26 19.7368 26C22.6395 26 25 23.7327 25 20.9448V6.3187C25.0002 6.05941 24.9172 5.80635 24.7622 5.594C24.6073 5.38165 24.388 5.22032 24.1342 5.13199L9.66053 0.0767506C9.46183 0.00698451 9.24854 -0.0156884 9.03878 0.0106579C8.82901 0.0370042 8.62896 0.111591 8.45562 0.228083C8.28229 0.344575 8.14079 0.49953 8.04314 0.679786C7.94549 0.860041 7.89458 1.06027 7.89474 1.26347V11.5382C7.09851 11.0826 6.18998 10.8395 5.26316 10.8343C2.36053 10.8343 0 13.1016 0 15.8895C0 18.6775 2.36053 20.9448 5.26316 20.9448Z" fill="white"/>
</svg>
