<svg width="31" height="33" viewBox="0 0 31 33" fill="none" xmlns="http://www.w3.org/2000/svg">
<path d="M5.26316 25.2254C8.16579 25.2254 10.5263 22.9581 10.5263 20.1702V7.34883L22.3684 11.484V20.8741C21.5722 20.4185 20.6637 20.1754 19.7368 20.1702C16.8342 20.1702 14.4737 22.4374 14.4737 25.2254C14.4737 28.0134 16.8342 30.2806 19.7368 30.2806C22.6395 30.2806 25 28.0134 25 25.2254V10.5993C25.0002 10.34 24.9172 10.087 24.7622 9.87464C24.6073 9.66229 24.388 9.50096 24.1342 9.41263L9.66053 4.35739C9.46183 4.28762 9.24854 4.26495 9.03878 4.2913C8.82901 4.31764 8.62896 4.39223 8.45562 4.50872C8.28229 4.62521 8.14079 4.78017 8.04314 4.96043C7.94549 5.14068 7.89458 5.34091 7.89474 5.54411V15.8189C7.09851 15.3632 6.18998 15.1202 5.26316 15.1149C2.36053 15.1149 0 17.3822 0 20.1702C0 22.9581 2.36053 25.2254 5.26316 25.2254Z" fill="white"/>
<line x1="4.4759" y1="1.83482" x2="29.1155" y2="30.8711" stroke="white" stroke-width="2" stroke-linecap="round"/>
</svg>
